<svg width="188" height="229" viewBox="0 0 188 229" fill="none" xmlns="http://www.w3.org/2000/svg">
<g id="Layer_1" clip-path="url(#clip0_4418_9204)">
<path id="Vector" d="M168.295 21.8045C167.419 27.8423 166.5 33.9223 165.582 39.9601C165.499 40.3623 165.277 40.7215 164.956 40.9734C158.904 46.8845 152.768 52.7112 146.466 58.8334C146.221 57.9075 146.294 56.9248 146.674 56.0468C148.01 51.149 149.387 46.209 150.848 41.3534C151.349 39.5801 151.14 39.1579 148.928 39.4534C147.026 39.5532 145.227 40.3568 143.872 41.7114C142.517 43.0661 141.702 44.8772 141.582 46.8001C140.094 52.6763 140.854 58.9044 143.711 64.2379C145.881 68.4601 147.3 72.6823 149.179 76.9045C149.525 77.5363 149.66 78.2648 149.562 78.9806C149.464 79.6963 149.139 80.3606 148.636 80.8734C140.664 91.2601 132.817 101.731 124.803 112.076C123.342 114.018 123.551 114.905 125.596 116.298C132.274 120.52 138.827 124.996 145.38 129.345C146.409 129.848 147.309 130.585 148.01 131.498C147.022 131.858 145.963 131.973 144.921 131.836C134.57 131.836 124.052 131.836 113.826 131.836C111.613 131.836 110.779 132.385 110.779 134.538C110.779 140.829 110.403 147.205 110.278 153.411C110.282 154.946 109.767 156.436 108.817 157.633C84.8169 187.907 68.4969 196.098 44.4969 226.413C44.0906 226.964 43.4949 227.341 42.8273 227.469C52.3439 195.169 54.2639 185.247 63.6969 152.778L63.1543 152.44L50.2569 166.036L49.5474 165.613L78.2639 101.478L-0.289126 126.811L-0.706543 126.178L34.2291 96.369C34.0796 96.1586 33.9536 95.932 33.8535 95.6934L24.1283 96.5379L23.8779 95.9468L63.6553 70.6134L57.3944 68.629C57.6031 67.4045 58.7299 67.1512 59.523 66.6445C71.6273 58.8756 83.69 51.1068 95.8361 43.3801C97.257 42.5485 98.3375 41.2308 98.883 39.6645C101.179 33.1201 103.558 26.6601 106.02 20.2001C106.36 19.5532 106.483 18.8122 106.37 18.0887C106.257 17.3653 105.915 16.6985 105.394 16.189C104.142 14.9645 104.393 14.1623 106.146 13.3601C111.154 11.0801 116.08 8.6312 121.047 6.30898C124.135 4.8312 124.093 4.8312 122.048 2.38231C121.673 1.96009 121.088 1.66453 121.213 0.651197L133.443 2.63564C137.617 3.3112 141.791 3.94453 145.965 4.78898C148.427 5.29564 149.304 4.78898 149.012 2.34009C148.948 1.95605 148.963 1.56282 149.057 1.18503C149.15 0.807232 149.319 0.453007 149.554 0.144531C150.514 0.397865 150.765 1.24231 151.182 1.87564C155.328 7.64601 159.419 13.4445 163.453 19.2712C164.372 20.6223 165.165 21.7201 167.126 20.6645C168.379 19.989 168.629 20.6645 168.504 21.7623L168.295 21.8045Z" fill="#310B0A"/>
<path id="Vector_2" d="M166.876 21.5132C164.914 22.5687 164.121 21.5132 163.245 20.1621C159.071 14.2932 154.897 8.50872 150.973 2.72427C150.514 2.09094 150.264 1.2465 149.304 0.993164C148.954 1.65293 148.864 2.42255 149.053 3.1465C149.304 5.4265 148.469 6.14428 145.965 5.59539C141.791 4.75094 137.617 4.15983 133.443 3.44205L121.255 1.45761C121.255 2.47094 121.714 2.80872 122.048 3.18872C124.135 5.63761 124.177 5.63761 121.047 7.11539C116.08 9.47983 111.154 11.9287 106.187 14.1665C104.434 14.9687 104.184 15.7709 105.436 16.9954C105.992 17.5271 106.356 18.2319 106.469 18.9973C106.583 19.7626 106.439 20.5443 106.062 21.2176C103.6 27.6776 101.22 34.1376 98.9248 40.6821C98.3667 42.2411 97.2894 43.5548 95.8779 44.3976C83.7318 52.1243 71.6691 59.8932 59.5648 67.6621C58.7717 68.1687 57.6448 68.4643 57.3944 69.6465L63.6553 71.6309L23.8779 96.9643C24.0409 97.0459 24.1948 97.145 24.3369 97.2598L34.0621 96.4154C34.1481 96.6525 34.2602 96.8791 34.3961 97.0909L-0.706543 127.069L-0.289126 127.66L78.264 102.326C68.497 124.198 59.0221 145.266 49.6308 166.335L50.2987 166.758C54.4726 162.24 58.9387 157.68 63.2378 153.162L63.7805 153.5C54.2222 185.8 52.3022 195.722 42.9109 228.191C43.5741 228.052 44.1663 227.677 44.5804 227.135C68.5387 196.82 84.9005 188.629 108.9 158.355C109.844 157.155 110.359 155.667 110.361 154.133C110.361 147.842 110.82 141.466 110.862 135.26C110.862 133.106 111.655 132.515 113.909 132.558C124.26 132.558 134.779 132.558 145.005 132.558C146.033 132.695 147.078 132.579 148.052 132.22C147.426 131.08 146.34 130.7 145.464 130.066C138.911 125.844 132.358 121.284 125.68 117.02C123.634 115.711 123.384 114.824 124.886 112.798C132.9 102.411 140.747 91.9398 148.72 81.5532C149.206 81.0302 149.519 80.3672 149.616 79.6562C149.713 78.9451 149.59 78.2211 149.262 77.5843C147.342 73.3621 145.965 69.1398 143.794 64.9176C140.917 59.5907 140.156 53.3547 141.666 47.4798C141.785 45.5638 142.594 43.7583 143.94 42.4046C145.286 41.051 147.075 40.2429 148.97 40.1332C151.224 39.8376 151.391 40.1332 150.89 42.0332C149.513 46.8887 148.135 51.8287 146.716 56.7265C146.336 57.6045 146.262 58.5872 146.507 59.5132L165.04 41.6954C165.326 41.3969 165.54 41.0357 165.666 40.6398C166.584 34.6021 167.502 28.5221 168.379 22.4843C168.379 21.5554 168.379 20.6687 166.96 21.3443L166.876 21.5132ZM152.184 12.1821H153.144C155.732 15.8554 158.32 19.5709 160.949 23.2021C161.575 24.0887 160.949 24.4687 160.24 24.8487L156.4 26.4532C155.924 25.7208 155.311 25.0903 154.595 24.5977C153.879 24.1051 153.074 23.7599 152.226 23.5821V12.1821H152.184ZM137.826 7.62206C140.914 8.04428 144.003 8.59317 147.05 9.14205C148.052 9.14205 149.053 9.47983 149.053 10.8732C149.053 15.0954 149.053 19.3176 149.053 23.5398C148.241 23.6682 147.462 23.955 146.758 24.3843L130.271 6.90428C132.843 6.89361 135.407 7.19124 137.909 7.79094L137.826 7.62206ZM110.57 16.0665L126.097 8.59316C126.263 8.57398 126.431 8.57398 126.598 8.59316C127.433 8.59316 127.808 9.09983 128.226 9.56427L144.379 26.4532C143.736 27.4292 143.387 28.5736 143.377 29.7465C143.389 30.7919 143.646 31.8195 144.128 32.7443C139.412 35.5732 134.695 38.5287 130.02 41.3998C129.85 41.5635 129.644 41.6845 129.419 41.7532C129.195 41.8218 128.957 41.8362 128.726 41.7951C128.494 41.7541 128.276 41.6587 128.087 41.5168C127.899 41.3748 127.746 41.1901 127.641 40.9776C121.923 33.2509 116.121 25.4821 110.32 17.7554C109.819 17.0798 109.527 16.4887 110.32 15.9821L110.57 16.0665ZM102.222 41.7376C104.643 35.3198 106.897 29.0709 109.401 22.0621C115.203 29.8732 120.713 37.1776 126.097 44.5665C127.015 45.8332 127.725 46.3398 129.353 45.7065C131.607 44.8621 133.986 44.3554 136.281 43.6798C137.742 43.2576 138.702 43.3421 138.41 45.1154C137.867 47.9443 137.367 50.8154 136.824 53.5598C136.448 55.2065 135.28 54.1932 134.612 53.9398C128.059 51.8287 121.547 49.7176 114.994 47.4798C111.154 46.185 107.314 44.9184 103.474 43.6798C102.347 43.2998 101.68 42.9621 102.18 41.6532L102.222 41.7376ZM126.973 75.5154C124.928 74.3768 122.63 73.7812 120.295 73.7843H118.834L103.641 47.5221C103.641 47.5221 103.641 47.2687 103.641 47.1421H103.975C110.403 48.7465 116.497 51.3643 122.883 53.1798C126.514 54.2776 130.062 55.5443 133.694 56.7687C134.528 57.0221 135.739 57.1909 135.113 58.4998C132.441 63.9887 129.728 69.5198 126.973 75.3887V75.5154ZM128.643 85.8176C128.493 87.9305 127.54 89.9024 125.983 91.3195C124.427 92.7366 122.388 93.4886 120.295 93.4176C119.781 93.4613 119.265 93.4613 118.751 93.4176C117.607 93.2392 116.513 92.8222 115.537 92.1932C114.859 91.7402 114.242 91.2009 113.7 90.5887C112.594 89.2674 111.987 87.5915 111.989 85.8598V85.3532C111.969 84.9453 111.969 84.5366 111.989 84.1287C112.266 83.1102 112.749 82.1611 113.408 81.342C114.479 79.9879 115.937 79.0002 117.582 78.5132C118.408 78.2605 119.266 78.1324 120.128 78.1332C120.475 78.089 120.825 78.089 121.172 78.1332C122.493 78.2732 123.765 78.7213 124.886 79.4421C125.874 80.0676 126.714 80.9033 127.349 81.8909C127.579 82.2297 127.762 82.5991 127.892 82.9887C128.281 83.8796 128.48 84.8436 128.476 85.8176H128.643ZM77.1369 60.2732L97.3386 47.3532C98.2986 46.7198 98.9665 46.1287 99.8848 47.6487C105.06 56.628 110.278 65.6213 115.537 74.6287C112.768 75.5901 110.42 77.5024 108.9 80.0332L64.9074 68.1687L77.1369 60.2732ZM48.8378 84.9732L66.8691 73.4887C67.3381 73.1103 67.8881 72.8482 68.4752 72.7235C69.0623 72.5989 69.6702 72.6151 70.25 72.7709L107.815 82.8621C107.562 83.8119 107.436 84.7917 107.44 85.7754L37.6517 92.7843C37.599 92.6356 37.529 92.4939 37.4431 92.3621L48.8378 84.9732ZM16.8239 118.751L14.8204 119.342C14.57 119.342 14.3613 119.595 14.1526 119.342L14.5282 119.046L29.8882 105.662C32.6335 103.569 35.2538 101.313 37.7352 98.9065C40.3656 96.279 43.8898 94.7684 47.5857 94.6843C63.3631 93.1643 79.1127 91.588 94.8344 89.9554C98.8932 89.4817 102.979 89.2842 107.064 89.3643L96.0865 92.9109L16.7822 118.582L16.8239 118.751ZM105.06 157.384C82.7717 180.227 78.5978 184.153 52.7613 210.922L51.9264 211.766L51.4674 211.513C53.8048 203.533 56.1422 195.511 58.5213 187.531C64.5317 167.222 62.9873 169.038 68.9143 148.686C69.5668 146.487 70.7255 144.476 72.2952 142.818C76.7195 138.258 81.1022 133.627 85.4431 128.926C87.153 130.02 89.1384 130.592 91.1613 130.573C92.2629 130.576 93.3592 130.42 94.417 130.109C98.09 138.131 101.791 146.139 105.52 154.133C105.837 154.595 105.979 155.158 105.917 155.717C105.856 156.276 105.596 156.793 105.186 157.173L105.06 157.384ZM84.5665 121.453C84.5823 120.607 84.7657 119.772 85.1059 118.999C85.4461 118.225 85.9361 117.528 86.5471 116.95C87.158 116.371 87.8775 115.922 88.6628 115.63C89.4482 115.337 90.2836 115.207 91.1196 115.246C91.9299 115.257 92.7334 115.399 93.4987 115.669C94.5014 116.041 95.4026 116.649 96.1283 117.442C97.0736 118.479 97.6084 119.832 97.6309 121.242C97.6352 122.041 97.4697 122.831 97.1457 123.56C96.8216 124.288 96.3465 124.938 95.7525 125.464C94.9731 126.226 94.0083 126.765 92.9561 127.026C92.3584 127.196 91.7404 127.282 91.1196 127.28C89.9474 127.298 88.7928 126.991 87.7805 126.393C86.8383 125.896 86.0453 125.153 85.4847 124.24C84.9394 123.368 84.65 122.358 84.65 121.326L84.5665 121.453ZM106.688 147.926H106.146C104.267 143.704 102.389 139.904 100.553 135.893C99.4257 133.487 98.3404 131.122 97.2552 128.715C98.4644 127.897 99.4578 126.792 100.149 125.497C100.84 124.202 101.208 122.756 101.22 121.284C101.218 120.101 100.98 118.931 100.521 117.843C100.062 116.755 99.3913 115.772 98.5491 114.951L105.728 107.266C105.934 106.861 106.229 106.509 106.591 106.238C106.953 105.967 107.372 105.784 107.815 105.704C107.44 119.722 107.022 133.655 106.647 147.589L106.688 147.926ZM109.986 98.2732C105.311 103.255 100.636 108.28 95.9195 113.262C94.4293 112.509 92.7855 112.118 91.1196 112.122C88.5647 112.019 86.0732 112.942 84.1887 114.69C82.3042 116.438 81.1796 118.869 81.0604 121.453C81.0609 123.484 81.7538 125.452 83.0221 127.026L62.9039 148.475L61.9856 149.32C61.9856 149.32 61.6934 149.995 61.3177 149.742C60.9421 149.489 61.3179 149.151 61.5683 148.982C66.1874 138.483 70.8344 127.984 75.5092 117.484C77.8048 112.333 80.1422 107.267 82.4379 102.115C82.5877 101.64 82.8477 101.209 83.1963 100.856C83.5448 100.503 83.9717 100.24 84.4413 100.089L109.193 92.0665C110.075 93.4157 111.209 94.5775 112.532 95.4865L109.986 98.2309V98.2732ZM136.657 128.631V129.138H111.989L120.337 118.371C120.963 117.569 121.547 118.118 122.09 118.371L136.866 128.166L136.657 128.631ZM111.405 124.873C110.925 117.394 110.925 109.89 111.405 102.411C111.408 102.049 111.488 101.693 111.64 101.365C111.791 101.037 112.01 100.746 112.281 100.511L115.537 97.0909C117.101 97.6726 118.754 97.9727 120.42 97.9776C123.714 98.1039 126.925 96.9113 129.355 94.6586C131.785 92.4058 133.239 89.2746 133.401 85.9443C133.422 85.6068 133.422 85.2684 133.401 84.9309L141.749 82.8198C142.167 82.8198 142.584 82.8198 143.586 82.8198L111.53 125.042L111.405 124.873ZM145.088 77.711C145.506 78.6398 145.088 78.8087 144.17 78.9776L132.65 81.9754C131.994 80.3684 130.996 78.927 129.728 77.7532L138.076 60.8643C140.622 66.9021 142.918 72.3487 145.255 77.7532L145.088 77.711ZM149.554 36.6287L141.207 39.0776L140.789 38.4865L146.466 35.0243C147.636 35.7865 148.997 36.1965 150.389 36.2065C150.161 36.431 149.869 36.5784 149.554 36.6287ZM150.514 33.8843H149.972C149.569 33.8507 149.174 33.7509 148.803 33.5887C147.759 33.2182 146.904 32.4437 146.424 31.4354C146.176 30.9077 146.048 30.3307 146.048 29.7465C146.047 29.2705 146.132 28.7982 146.299 28.3532C146.712 27.3294 147.507 26.5107 148.511 26.0732C148.698 25.971 148.893 25.8862 149.095 25.8198C149.566 25.6623 150.061 25.5908 150.556 25.6087C151.138 25.6172 151.715 25.7169 152.267 25.9043C153.041 26.2084 153.719 26.7191 154.229 27.3821C154.738 28.0663 155.029 28.891 155.064 29.7465C155.087 29.9852 155.087 30.2256 155.064 30.4643C154.837 31.556 154.191 32.5123 153.269 33.1243C152.49 33.6473 151.575 33.9264 150.64 33.9265L150.514 33.8843ZM153.561 46.5509C154.563 41.1043 154.229 41.1887 159.447 42.0754L153.561 46.5509ZM163.746 28.1421C163.328 31.1821 163.036 34.2221 162.452 37.2198C161.993 39.4998 159.864 38.1065 158.57 38.5287C157.318 38.1909 155.481 39.0354 154.897 37.8954C154.475 37.0496 154.112 36.1749 153.812 35.2776C154.902 34.7701 155.828 33.9623 156.485 32.9467C157.142 31.9312 157.503 30.7489 157.527 29.5354V29.1554C159.029 28.4798 160.573 27.8465 162.076 27.1287C163.579 26.4109 163.871 26.8754 163.746 28.1421Z" fill="#F53632"/>
</g>
<defs>
<clipPath id="clip0_4418_9204">
<rect width="188" height="228" fill="white" transform="translate(0 0.144531)"/>
</clipPath>
</defs>
</svg>
