<svg width="218" height="209" viewBox="0 0 218 209" fill="none" xmlns="http://www.w3.org/2000/svg">
<circle cx="109.233" cy="104.313" r="80.3547" stroke="#A3A3A3" stroke-linecap="round"/>
<circle cx="109.233" cy="104.313" r="54.1165" stroke="#525252" stroke-linecap="round"/>
<circle cx="109.232" cy="104.313" r="31.158" stroke="white" stroke-linecap="round"/>
<path d="M213.035 104.313C213.035 47.2549 166.561 1 109.233 1C69.1347 1 34.3468 23.6291 17.0577 56.7563M213.035 104.313L207.972 99.2736M213.035 104.313L217.466 98.6436M5.43059 104.313C5.43059 161.372 51.9045 207.626 109.233 207.626C149.331 207.626 184.119 184.997 201.408 151.87M5.43059 104.313L1 109.983M5.43059 104.313L10.4941 109.353" stroke="white" stroke-linecap="round"/>
<circle cx="123.991" cy="25.5984" r="4.91968" fill="white"/>
<circle cx="61.676" cy="79.7151" r="4.91968" fill="white"/>
<circle cx="161.709" cy="164.989" r="4.91968" fill="white"/>
<circle cx="86.2751" cy="153.51" r="4.91968" fill="white"/>
<circle cx="117.432" cy="184.667" r="4.91968" fill="white"/>
<circle cx="155.15" cy="74.7947" r="4.91968" fill="white"/>
<circle cx="28.8777" cy="91.1941" r="4.91968" fill="white"/>
<path d="M109.233 86.8291L124.532 94.1787L109.233 102.447L93.9346 94.1787L109.233 86.8291ZM93.3345 94.9911L108.733 103.313V119.874L93.3345 111.551V94.9911ZM125.132 94.9911V111.551L109.733 119.874V103.313L125.132 94.9911Z" stroke="white"/>
</svg>
