<svg width="159" height="54" viewBox="0 0 159 54" fill="none" xmlns="http://www.w3.org/2000/svg">
<g clip-path="url(#clip0_4410_8736)">
<path d="M40.49 5.13C40.28 6.56 40.06 8 39.84 9.43C39.8201 9.52527 39.7669 9.61034 39.69 9.67C38.24 11.07 36.77 12.45 35.26 13.9C35.2013 13.6807 35.2189 13.4479 35.31 13.24C35.63 12.08 35.96 10.91 36.31 9.76C36.43 9.34 36.38 9.24 35.85 9.31C35.3943 9.33362 34.9631 9.52396 34.6386 9.84479C34.3141 10.1656 34.1188 10.5946 34.09 11.05C33.7334 12.4417 33.9156 13.9168 34.6 15.18C35.12 16.18 35.46 17.18 35.91 18.18C35.9931 18.3296 36.0253 18.5022 36.0019 18.6717C35.9784 18.8412 35.9006 18.9985 35.78 19.12C33.87 21.58 31.99 24.06 30.07 26.51C29.72 26.97 29.77 27.18 30.26 27.51C31.86 28.51 33.43 29.57 35 30.6C35.2464 30.7193 35.462 30.8938 35.63 31.11C35.3932 31.1952 35.1395 31.2226 34.89 31.19C32.41 31.19 29.89 31.19 27.44 31.19C26.91 31.19 26.71 31.32 26.71 31.83C26.71 33.32 26.62 34.83 26.59 36.3C26.5911 36.6635 26.4675 37.0165 26.24 37.3C20.49 44.47 16.58 46.41 10.83 53.59C10.7327 53.7205 10.5899 53.8097 10.43 53.84C12.71 46.19 13.17 43.84 15.43 36.15L15.3 36.07L12.21 39.29L12.04 39.19L18.92 24L0.100006 30L0 29.85L8.37 22.79C8.33417 22.7402 8.30399 22.6865 8.28 22.63L5.95001 22.83L5.89001 22.69L15.42 16.69L13.92 16.22C13.97 15.93 14.24 15.87 14.43 15.75C17.33 13.91 20.22 12.07 23.13 10.24C23.4704 10.043 23.7293 9.73096 23.86 9.36C24.41 7.81 24.98 6.28 25.57 4.75C25.6514 4.5968 25.6807 4.42129 25.6537 4.24994C25.6266 4.07859 25.5446 3.92068 25.42 3.8C25.12 3.51 25.18 3.32 25.6 3.13C26.8 2.59 27.98 2.01 29.17 1.46C29.91 1.11 29.9 1.11 29.41 0.53C29.32 0.43 29.18 0.36 29.21 0.12L32.14 0.59C33.14 0.75 34.14 0.9 35.14 1.1C35.73 1.22 35.94 1.1 35.87 0.52C35.8547 0.429045 35.8584 0.335911 35.8807 0.246433C35.9031 0.156955 35.9437 0.0730599 36 0C36.23 0.06 36.29 0.26 36.39 0.41C37.3833 1.77667 38.3633 3.15 39.33 4.53C39.55 4.85 39.74 5.11 40.21 4.86C40.51 4.7 40.57 4.86 40.54 5.12L40.49 5.13Z" fill="#310B0A"/>
<path d="M40.15 5.05995C39.68 5.30995 39.49 5.05995 39.28 4.73995C38.28 3.34995 37.28 1.97995 36.34 0.609951C36.23 0.459951 36.17 0.259951 35.94 0.199951C35.8561 0.356212 35.8347 0.538489 35.88 0.709951C35.94 1.24995 35.74 1.41995 35.14 1.28995C34.14 1.08995 33.14 0.949951 32.14 0.779951L29.22 0.309952C29.22 0.549952 29.33 0.629952 29.41 0.719952C29.91 1.29995 29.92 1.29995 29.17 1.64995C27.98 2.20995 26.8 2.78995 25.61 3.31995C25.19 3.50995 25.13 3.69995 25.43 3.98995C25.5632 4.11589 25.6503 4.28282 25.6775 4.46408C25.7047 4.64534 25.6703 4.83048 25.58 4.98995C24.99 6.51995 24.42 8.04995 23.87 9.59995C23.7363 9.96919 23.4782 10.2803 23.14 10.48C20.23 12.31 17.34 14.15 14.44 15.99C14.25 16.11 13.98 16.1799 13.92 16.4599L15.42 16.93L5.89001 22.93C5.92908 22.9493 5.96594 22.9728 6 23L8.32999 22.7999C8.35059 22.8561 8.37744 22.9098 8.41 22.9599L0 30.06L0.100006 30.2L18.92 24.2C16.58 29.38 14.31 34.37 12.06 39.36L12.22 39.4599C13.22 38.3899 14.29 37.31 15.32 36.24L15.45 36.32C13.16 43.97 12.7 46.32 10.45 54.01C10.6089 53.977 10.7508 53.8883 10.85 53.76C16.59 46.58 20.51 44.64 26.26 37.47C26.4862 37.1857 26.6095 36.8332 26.61 36.47C26.61 34.98 26.72 33.47 26.73 32C26.73 31.49 26.92 31.35 27.46 31.36C29.94 31.36 32.46 31.36 34.91 31.36C35.1562 31.3925 35.4067 31.3651 35.64 31.2799C35.49 31.0099 35.23 30.92 35.02 30.77C33.45 29.77 31.88 28.69 30.28 27.68C29.79 27.37 29.73 27.16 30.09 26.68C32.01 24.22 33.89 21.74 35.8 19.28C35.9164 19.1561 35.9915 18.9991 36.0148 18.8307C36.0381 18.6623 36.0084 18.4908 35.93 18.34C35.47 17.34 35.14 16.34 34.62 15.34C33.9307 14.0783 33.7484 12.6014 34.11 11.21C34.1386 10.7561 34.3324 10.3285 34.6549 10.0079C34.9773 9.68732 35.406 9.49594 35.86 9.46995C36.4 9.39995 36.44 9.46995 36.32 9.91995C35.99 11.07 35.66 12.24 35.32 13.4C35.2289 13.6079 35.2113 13.8407 35.27 14.06L39.71 9.83995C39.7786 9.76927 39.8299 9.68372 39.86 9.58995C40.08 8.15995 40.3 6.71995 40.51 5.28995C40.51 5.06995 40.51 4.85995 40.17 5.01995L40.15 5.05995ZM36.63 2.84995H36.86C37.48 3.71995 38.1 4.59995 38.73 5.45995C38.88 5.66995 38.73 5.75995 38.56 5.84995L37.64 6.22995C37.5261 6.0565 37.3792 5.90717 37.2076 5.79049C37.0361 5.67382 36.8432 5.59208 36.64 5.54995V2.84995H36.63ZM33.19 1.76995C33.93 1.86995 34.67 1.99995 35.4 2.12995C35.64 2.12995 35.88 2.20995 35.88 2.53995C35.88 3.53995 35.88 4.53995 35.88 5.53995C35.6854 5.57036 35.4986 5.63829 35.33 5.73995L31.38 1.59995C31.9962 1.59743 32.6104 1.66792 33.21 1.80995L33.19 1.76995ZM26.66 3.76995L30.38 1.99995C30.4199 1.99541 30.4601 1.99541 30.5 1.99995C30.7 1.99995 30.79 2.11995 30.89 2.22995L34.76 6.22995C34.6059 6.46112 34.5225 6.73216 34.52 7.00995C34.5228 7.25755 34.5845 7.50092 34.7 7.71995C33.57 8.38995 32.44 9.08995 31.32 9.76995C31.2792 9.80871 31.2299 9.83737 31.176 9.85363C31.1222 9.86989 31.0652 9.8733 31.0098 9.86357C30.9544 9.85385 30.902 9.83127 30.8569 9.79764C30.8118 9.76402 30.7752 9.72028 30.75 9.66995C29.38 7.83995 27.99 5.99995 26.6 4.16995C26.48 4.00995 26.41 3.86995 26.6 3.74995L26.66 3.76995ZM24.66 9.84995C25.24 8.32995 25.78 6.84995 26.38 5.18995C27.77 7.03995 29.09 8.76995 30.38 10.52C30.6 10.82 30.77 10.94 31.16 10.79C31.7 10.59 32.27 10.47 32.82 10.31C33.17 10.21 33.4 10.23 33.33 10.65C33.2 11.32 33.08 12 32.95 12.65C32.86 13.04 32.58 12.8 32.42 12.74C30.85 12.24 29.29 11.74 27.72 11.21C26.8 10.9033 25.88 10.6033 24.96 10.31C24.69 10.22 24.53 10.14 24.65 9.82995L24.66 9.84995ZM30.59 17.85C30.0999 17.5803 29.5494 17.4392 28.99 17.44H28.64L25 11.22C25 11.22 25 11.16 25 11.13H25.08C26.62 11.51 28.08 12.13 29.61 12.56C30.48 12.82 31.33 13.12 32.2 13.41C32.4 13.47 32.69 13.51 32.54 13.82C31.9 15.12 31.25 16.43 30.59 17.82V17.85ZM30.99 20.29C30.9541 20.7904 30.7257 21.2574 30.3528 21.593C29.9799 21.9287 29.4914 22.1068 28.99 22.09C28.8669 22.1003 28.7431 22.1003 28.62 22.09C28.346 22.0477 28.0838 21.9489 27.85 21.7999C27.6877 21.6927 27.5398 21.565 27.41 21.4199C27.1449 21.107 26.9996 20.7101 27 20.2999V20.18C26.9951 20.0833 26.9951 19.9866 27 19.8899C27.0662 19.6487 27.182 19.4239 27.34 19.2299C27.5966 18.9092 27.9458 18.6753 28.34 18.56C28.5378 18.5001 28.7434 18.4698 28.95 18.47C29.033 18.4595 29.117 18.4595 29.2 18.47C29.5166 18.5031 29.8213 18.6092 30.09 18.78C30.3265 18.9281 30.5278 19.126 30.68 19.36C30.7352 19.4402 30.7789 19.5277 30.81 19.62C30.9033 19.831 30.951 20.0593 30.95 20.29H30.99ZM18.65 14.24L23.49 11.18C23.72 11.03 23.88 10.89 24.1 11.25C25.34 13.3766 26.59 15.5066 27.85 17.6399C27.1867 17.8677 26.6241 18.3206 26.26 18.92L15.72 16.11L18.65 14.24ZM11.87 20.09L16.19 17.37C16.3024 17.2803 16.4341 17.2182 16.5748 17.1887C16.7155 17.1592 16.8611 17.163 17 17.2L26 19.59C25.9393 19.8149 25.9091 20.047 25.91 20.2799L9.19 21.9399C9.17737 21.9047 9.1606 21.8712 9.14001 21.84L11.87 20.09ZM4.20001 28.09L3.72 28.2299C3.66 28.2299 3.61 28.2899 3.56 28.2299L3.64999 28.16L7.32999 24.99C7.98772 24.4942 8.61549 23.96 9.20999 23.3899C9.84021 22.7676 10.6845 22.4099 11.57 22.3899C15.35 22.0299 19.1233 21.6566 22.89 21.27C23.8624 21.1578 24.8413 21.111 25.82 21.13L23.19 21.97L4.19 28.0499L4.20001 28.09ZM25.34 37.24C20 42.65 19 43.5799 12.81 49.9199L12.61 50.1199L12.5 50.06C13.06 48.17 13.62 46.27 14.19 44.38C15.63 39.57 15.26 40 16.68 35.18C16.8363 34.6591 17.1139 34.1827 17.49 33.79C18.55 32.71 19.6 31.6133 20.64 30.5C21.0497 30.759 21.5253 30.8944 22.01 30.8899C22.2739 30.8906 22.5366 30.8536 22.79 30.7799C23.67 32.6799 24.5567 34.5766 25.45 36.47C25.5262 36.5793 25.56 36.7126 25.5453 36.845C25.5306 36.9774 25.4683 37.1 25.37 37.1899L25.34 37.24ZM20.43 28.7299C20.4338 28.5295 20.4777 28.3318 20.5592 28.1486C20.6407 27.9654 20.7581 27.8004 20.9045 27.6633C21.0509 27.5263 21.2232 27.42 21.4114 27.3507C21.5996 27.2814 21.7997 27.2506 22 27.2599C22.1941 27.2623 22.3866 27.2961 22.57 27.36C22.8102 27.4482 23.0261 27.5922 23.2 27.7799C23.4265 28.0256 23.5546 28.3459 23.56 28.68C23.561 28.8691 23.5214 29.0564 23.4438 29.2289C23.3661 29.4014 23.2523 29.5553 23.11 29.68C22.9232 29.8603 22.6921 29.9879 22.44 30.0499C22.2968 30.0902 22.1487 30.1104 22 30.11C21.7192 30.1142 21.4425 30.0416 21.2 29.9C20.9743 29.7823 20.7843 29.6062 20.65 29.3899C20.5193 29.1835 20.45 28.9442 20.45 28.7L20.43 28.7299ZM25.73 35H25.6C25.15 34 24.7 33.1 24.26 32.15C23.99 31.58 23.73 31.02 23.47 30.45C23.7597 30.2561 23.9977 29.9945 24.1633 29.6878C24.3288 29.381 24.417 29.0385 24.42 28.6899C24.4193 28.4098 24.3623 28.1326 24.2523 27.875C24.1424 27.6173 23.9818 27.3843 23.78 27.1899L25.5 25.3699C25.5492 25.2739 25.6199 25.1905 25.7066 25.1264C25.7934 25.0622 25.8938 25.0189 26 25C25.91 28.32 25.81 31.6199 25.72 34.9199L25.73 35ZM26.52 23.24C25.4 24.42 24.28 25.61 23.15 26.79C22.793 26.6115 22.3991 26.5191 22 26.52C21.3879 26.4955 20.791 26.7142 20.3395 27.1282C19.888 27.5422 19.6186 28.118 19.59 28.7299C19.5901 29.2109 19.7561 29.6771 20.06 30.0499L15.24 35.13L15.02 35.33C15.02 35.33 14.95 35.49 14.86 35.43C14.77 35.37 14.86 35.29 14.92 35.25C16.0267 32.7633 17.14 30.2766 18.26 27.79C18.81 26.57 19.37 25.37 19.92 24.15C19.9559 24.0374 20.0182 23.9352 20.1017 23.8517C20.1852 23.7682 20.2875 23.7059 20.4 23.6699L26.33 21.77C26.5413 22.0895 26.8131 22.3647 27.13 22.58L26.52 23.2299V23.24ZM32.91 30.43V30.5499H27L29 28C29.15 27.81 29.29 27.94 29.42 28L32.96 30.32L32.91 30.43ZM26.86 29.54C26.745 27.7685 26.745 25.9914 26.86 24.22C26.8608 24.1343 26.88 24.0498 26.9163 23.9722C26.9525 23.8946 27.0049 23.8256 27.07 23.77L27.85 22.9599C28.2248 23.0977 28.6207 23.1688 29.02 23.1699C29.8091 23.1999 30.5783 22.9174 31.1605 22.3839C31.7427 21.8503 32.0911 21.1087 32.13 20.32C32.135 20.24 32.135 20.1599 32.13 20.08L34.13 19.58C34.23 19.58 34.33 19.58 34.57 19.58L26.89 29.58L26.86 29.54ZM34.93 18.37C35.03 18.59 34.93 18.63 34.71 18.67L31.95 19.38C31.7928 18.9994 31.5538 18.658 31.25 18.38L33.25 14.38C33.86 15.81 34.41 17.1 34.97 18.38L34.93 18.37ZM36 8.63995L34 9.21995L33.9 9.07995L35.26 8.25995C35.5405 8.44047 35.8665 8.53758 36.2 8.53995C36.1453 8.59311 36.0754 8.62804 36 8.63995ZM36.23 7.98995H36.1C36.0035 7.98201 35.9089 7.95836 35.82 7.91995C35.5699 7.8322 35.3649 7.64877 35.25 7.40995C35.1906 7.28497 35.1599 7.14832 35.16 7.00995C35.1596 6.8972 35.1799 6.78535 35.22 6.67995C35.3191 6.43748 35.5094 6.24359 35.75 6.13995C35.7948 6.11575 35.8416 6.09567 35.89 6.07995C36.0028 6.04263 36.1213 6.0257 36.24 6.02995C36.3795 6.03197 36.5178 6.05558 36.65 6.09995C36.8354 6.17197 36.9979 6.29293 37.12 6.44995C37.2419 6.61202 37.3117 6.80732 37.32 7.00995C37.3255 7.06649 37.3255 7.12342 37.32 7.17995C37.2655 7.43852 37.111 7.66501 36.89 7.80995C36.7033 7.93383 36.4841 7.99992 36.26 7.99995L36.23 7.98995ZM36.96 10.99C37.2 9.69995 37.12 9.71995 38.37 9.92995L36.96 10.99ZM39.4 6.62995C39.3 7.34995 39.23 8.06995 39.09 8.77995C38.98 9.31995 38.47 8.98995 38.16 9.08995C37.86 9.00995 37.42 9.20995 37.28 8.93995C37.1789 8.73964 37.092 8.53246 37.02 8.31995C37.2811 8.19976 37.5031 8.00844 37.6605 7.7679C37.8179 7.52737 37.9044 7.24736 37.91 6.95995V6.86995C38.27 6.70995 38.64 6.55995 39 6.38995C39.36 6.21995 39.43 6.32995 39.4 6.62995Z" fill="#F53632"/>
<path d="M61 27.8801H53.68L54.68 23.8201H59C59.0508 23.8164 59.1002 23.8021 59.1451 23.778C59.1899 23.7538 59.2291 23.7205 59.26 23.6801C59.3408 23.5997 59.3993 23.4998 59.43 23.3901L59.85 21.6501C59.8892 21.547 59.8892 21.4331 59.85 21.3301C59.8376 21.2859 59.8116 21.2467 59.7757 21.218C59.7399 21.1893 59.6959 21.1725 59.65 21.1701H54.39L51.8 31.5801C51.6947 31.7559 51.5553 31.9089 51.39 32.0301C51.15 32.2401 50.87 32.4701 50.53 32.7201C50.19 32.9701 49.83 33.2501 49.43 33.5301C49.03 33.8101 48.63 34.0701 48.25 34.2901C47.9266 34.4969 47.5928 34.6872 47.25 34.8601C47.0286 34.9757 46.788 35.0502 46.54 35.0801L51.02 17.0801H63.76C63.8584 17.0888 63.9538 17.1183 64.04 17.1666C64.1262 17.2148 64.2012 17.2808 64.26 17.3601C64.4277 17.565 64.5565 17.7988 64.64 18.0501C64.7407 18.3307 64.8045 18.6231 64.83 18.9201C64.8667 19.1855 64.8667 19.4547 64.83 19.7201L63.46 25.2301C63.3538 25.5121 63.198 25.7729 63 26.0001C62.8138 26.3034 62.6031 26.591 62.37 26.8601C62.1531 27.11 61.9119 27.3378 61.65 27.5401C61.4747 27.6973 61.2542 27.7953 61.02 27.8201L61 27.8801Z" fill="white"/>
<path d="M72.7202 31.5901L72.4802 29.8501H67.1702L66.0902 31.5901H61.2202L70.4502 17.1001H75.1702L77.1702 31.5901H72.7202ZM71.5902 22.8201L69.7202 25.8201H72.0002L71.6302 22.8201H71.5902Z" fill="white"/>
<path d="M95.6798 19.7299L94.5798 24.2099C94.4512 24.7073 94.2976 25.1979 94.1198 25.6799C93.9666 26.0684 93.7467 26.4272 93.4698 26.7399C93.1976 27.0364 92.853 27.2569 92.4698 27.3799C92.0433 27.5496 91.5888 27.6378 91.1298 27.6399H90.9998L93.3698 31.6399H88.3698L85.1298 26.2599L85.7398 23.8699H89.9998C90.1998 23.8699 90.3298 23.7099 90.4198 23.3999L90.8398 21.7099C90.8741 21.6094 90.8741 21.5004 90.8398 21.3999C90.8398 21.2799 90.7198 21.2299 90.6398 21.2299H85.2998L82.7198 31.6399H78.2998L81.9098 17.1499H94.6498C94.7497 17.1533 94.8475 17.1794 94.9359 17.2262C95.0242 17.273 95.1008 17.3392 95.1598 17.4199C95.3185 17.6291 95.4433 17.862 95.5298 18.1099C95.6305 18.3905 95.6943 18.6829 95.7198 18.9799C95.7569 19.2453 95.7569 19.5145 95.7198 19.7799L95.6798 19.7299Z" fill="white"/>
<path d="M106.71 31.5901H95.63C95.5301 31.5867 95.4323 31.5606 95.3439 31.5138C95.2556 31.467 95.179 31.4008 95.12 31.3201C94.9608 31.1128 94.839 30.8793 94.76 30.6301C94.667 30.3518 94.6098 30.0628 94.59 29.7701C94.5488 29.5017 94.5488 29.2285 94.59 28.9601L96.88 19.7301C96.9556 19.4473 97.0736 19.1776 97.23 18.9301C97.417 18.6266 97.6242 18.336 97.85 18.0601C98.0601 17.8077 98.2945 17.5765 98.55 17.3701C98.7289 17.2139 98.9533 17.1193 99.19 17.1001H110.27C110.368 17.1043 110.464 17.1308 110.551 17.1776C110.638 17.2243 110.713 17.2902 110.77 17.3701C110.939 17.5758 111.071 17.8093 111.16 18.0601C111.262 18.3398 111.323 18.6329 111.34 18.9301C111.387 19.1947 111.387 19.4655 111.34 19.7301L109.05 29.0001C108.98 29.288 108.862 29.5619 108.7 29.8101C108.51 30.1112 108.3 30.3985 108.07 30.6701C107.85 30.9232 107.605 31.1543 107.34 31.3601C107.158 31.4982 106.938 31.5783 106.71 31.5901ZM105.11 27.0001L106.45 21.6301C106.49 21.5272 106.49 21.413 106.45 21.3101C106.439 21.2651 106.413 21.225 106.377 21.1961C106.341 21.1671 106.296 21.151 106.25 21.1501H101.25C101.199 21.1554 101.15 21.1739 101.108 21.2037C101.066 21.2334 101.032 21.2735 101.01 21.3201C100.943 21.4158 100.889 21.5201 100.85 21.6301L99.52 27.0001C99.4798 27.103 99.4798 27.2172 99.52 27.3201C99.5285 27.3627 99.5507 27.4014 99.5832 27.4302C99.6157 27.4591 99.6567 27.4766 99.7 27.4801H104.7C104.751 27.4741 104.8 27.4565 104.843 27.4288C104.887 27.4011 104.923 27.3639 104.95 27.3201C105.016 27.2202 105.07 27.1128 105.11 27.0001Z" fill="white"/>
<path d="M113.24 17.1001H126C126.099 17.1055 126.196 17.1335 126.283 17.182C126.369 17.2306 126.444 17.2983 126.5 17.3801C126.666 17.5827 126.794 17.8129 126.88 18.0601C126.979 18.3413 127.043 18.6334 127.07 18.9301C127.112 19.1985 127.112 19.4717 127.07 19.7401L126.36 22.5801C126.31 22.7442 126.228 22.897 126.12 23.0301C125.989 23.2073 125.849 23.3776 125.7 23.5401L125.24 24.0101C125.132 24.1288 125.015 24.2391 124.89 24.3401C124.965 24.4502 125.029 24.5674 125.08 24.6901C125.169 24.851 125.246 25.0181 125.31 25.1901C125.377 25.3555 125.431 25.5261 125.47 25.7001C125.493 25.8358 125.493 25.9744 125.47 26.1101L124.73 29.0001C124.652 29.2868 124.531 29.5599 124.37 29.8101C124.181 30.1112 123.97 30.3985 123.74 30.6701C123.521 30.9205 123.28 31.1514 123.02 31.3601C122.839 31.5134 122.616 31.6076 122.38 31.6301H109.64L113.25 17.1401L113.24 17.1001ZM120.83 26.8001C120.842 26.731 120.838 26.6601 120.819 26.5926C120.8 26.5252 120.766 26.4628 120.72 26.4101H116.35L117.35 22.3201H121.66C121.739 22.2846 121.808 22.2296 121.86 22.1601C121.935 22.0852 121.997 21.997 122.04 21.9001L122.09 21.6601C122.125 21.5563 122.125 21.4439 122.09 21.3401C122.04 21.2301 121.97 21.1801 121.89 21.1801H116.62L115.07 27.5001H120.33C120.383 27.4963 120.434 27.4798 120.48 27.452C120.525 27.4241 120.563 27.3857 120.59 27.3401C120.662 27.2458 120.719 27.1413 120.76 27.0301L120.81 26.7901L120.83 26.8001Z" fill="white"/>
<path d="M138 31.5901H127C126.9 31.5867 126.802 31.5606 126.714 31.5138C126.626 31.467 126.549 31.4008 126.49 31.3201C126.338 31.108 126.217 30.8758 126.13 30.6301C126.047 30.3494 125.99 30.0615 125.96 29.7701C125.919 29.5017 125.919 29.2285 125.96 28.9601L128.25 19.7301C128.326 19.4455 128.447 19.1753 128.61 18.9301C128.79 18.6222 128.998 18.3311 129.23 18.0601C129.434 17.8058 129.666 17.5744 129.92 17.3701C130.102 17.212 130.33 17.1172 130.57 17.1001H141.65C141.747 17.1058 141.841 17.133 141.926 17.1797C142.01 17.2264 142.084 17.2914 142.14 17.3701C142.309 17.5758 142.441 17.8093 142.53 18.0601C142.631 18.3407 142.695 18.6331 142.72 18.9301C142.757 19.1955 142.757 19.4647 142.72 19.7301L140.39 29.0001C140.312 29.2868 140.19 29.5599 140.03 29.8101C139.841 30.1112 139.63 30.3985 139.4 30.6701C139.18 30.9232 138.935 31.1543 138.67 31.3601C138.478 31.5079 138.243 31.5887 138 31.5901ZM136.44 27.0001L137.78 21.6301C137.815 21.5263 137.815 21.4139 137.78 21.3101C137.78 21.2001 137.66 21.1501 137.58 21.1501H132.58C132.529 21.1554 132.48 21.1739 132.438 21.2037C132.396 21.2334 132.362 21.2735 132.34 21.3201C132.277 21.4181 132.223 21.5219 132.18 21.6301L130.85 27.0001C130.82 27.1047 130.82 27.2155 130.85 27.3201C130.85 27.4201 130.95 27.4801 131.04 27.4801H136.04C136.093 27.4741 136.143 27.4567 136.188 27.429C136.233 27.4014 136.271 27.3642 136.3 27.3201C136.36 27.2196 136.407 27.1121 136.44 27.0001Z" fill="white"/>
<path d="M146 31.5901L148.58 21.1901H143.58L144.58 17.1001H159L158 21.1901H153L150.42 31.5901H146Z" fill="white"/>
</g>
<defs>
<clipPath id="clip0_4410_8736">
<rect width="159" height="54" fill="white"/>
</clipPath>
</defs>
</svg>
